# xmcd
#
# Track frame offsets:
#	150
#	10750
#	26345
#	41842
#	54232
#	65775
#	86377
#	99297
#	110112
#	120822
#	135815
#	154310
#
# Disc length: 2279 seconds
#
# Revision: 0
# Processed by: cddbd v1.4PL0 Copyright (c) Steve Scherf et al.
# Submitted via: EasyCDDAExtractor 4.6.0.1
#
DISCID=8a08e50c
DTITLE=Peter Hinnen - Volksmusik and Country-Musik
DYEAR=1900
DGENRE=Country
TTITLE0=7000 Rinder
TTITLE1=Der Generationen Jodler
TTITLE2=El Rancho Grande
TTITLE3=Jo-Jo Walzer
TTITLE4=Der Cowboy hat immer ein Cowgirl
TTITLE5=Schweizer Jodel
TTITLE6=Ich wär so gern in Lousiana
TTITLE7=Ku-Ku-Jodel
TTITLE8=Ich bin der König der blauen Berge
TTITLE9=Weltrekord Jodel
TTITLE10=Ein Richtiger Cowboy
TTITLE11=I Träum vo Dir
EXTD=
EXTT0=
EXTT1=
EXTT2=
EXTT3=
EXTT4=
EXTT5=
EXTT6=
EXTT7=
EXTT8=
EXTT9=
EXTT10=
EXTT11=
PLAYORDER=
